<?xml version="1.0" encoding="UTF-8"?>
<svg id="Layer_1" xmlns="http://www.w3.org/2000/svg" version="1.1" viewBox="0 0 72.4 82.2">
  <!-- Generator: Adobe Illustrator 29.0.0, SVG Export Plug-In . SVG Version: 2.1.0 Build 186)  -->
  <defs>
    <style>
      .st0 {
        fill: #2e2e2e;
      }
    </style>
  </defs>
  <path class="st0" d="M65.6,13.7C59.4,5.7,45.9-1,32.1,1.5,16.3,4.4,7.1,16.5,6,35.6c0,0-.5,5.3-4.7,13.9-.7,1.5-.8,3.2-.2,4.7.7,1.4,2,2.4,3.5,2.8,1.6.5,2.6.8,3.1.9l2.2,13.7c.2,1.6,1.1,3,2.3,3.9,1.8,1.4,4.5,1.9,7.8,1.4,3.4-.6,6.8-1,10.2-1.1,0,0,.1,0,.2,0,.5,0,2.8,0,3.1,4.2,0,.9.8,1.5,1.6,1.5s0,0,.1,0h0c.9,0,1.6-.9,1.5-1.8,0-2.2-1-4.3-2.6-5.8-1.1-.9-2.5-1.5-4-1.4-3.6,0-7.2.4-10.7,1.1-2.3.4-4.1.1-5.2-.7h0c-.6-.4-1-1.1-1.1-1.8,0,0,0,0,0-.1l-2.4-14.5c0-1.2-.6-1.4-5.4-2.8-.6,0-1.1-.4-1.4-.9-.2-.6-.1-1.3.1-1.9,4.5-9.1,5-14.8,5.1-15.1.9-17.4,9.2-28.4,23.3-31,12.5-2.3,24.8,3.8,30.4,11,7.8,9.9,5.6,24.2,2.2,31.3-4,8.5-4.3,10.8-4.3,12.5s.1,17.2.1,17.9h0c0,.9.7,1.6,1.7,1.6h0c.9,0,1.6-.8,1.6-1.7,0-.2-.1-16.6-.1-17.9s0-2.6,4-11.1c3.7-7.9,6.1-23.6-2.6-34.8h0Z"/>
  <path class="st0" d="M38.9,17.3c-1.8-.8-7.4-2.5-18.9-.9h0c-.6,0-1.1.6-1.1,1.2v28.1c0,.4.1.7.4.9.3.2.6.4,1,.3,4-.4,15.1-1.2,18,.2h0s0,0,.1,0c0,0,0,0,0,0,.2,0,.4,0,.6,0,0,0,0,0,0,0,0,0,0,0,.1,0,2.6-1.2,12.4-.8,18.3-.2h0c.3,0,.7,0,1-.3.3-.2.4-.6.4-.9v-28.1c0-.6-.5-1.1-1.1-1.2-11.6-1.6-17.2.1-19,.9h0ZM21.4,44.3v-25.6c9.8-1.2,14.7.1,16.3.7v24.9c-4.5-.9-12.8-.3-16.3,0h0ZM56.5,44.3c-2.1-.2-6.2-.5-10-.5h0c-2.2,0-4.3.1-6.5.5v-24.8c1.7-.6,6.6-2,16.5-.7v25.6Z"/>
  <path class="st0" d="M23.9,23.8c6.8-1.4,11,.1,11,.1.6.2,1.4,0,1.6-.7.2-.6,0-1.4-.7-1.6-.2,0-4.8-1.8-12.4-.3h0c-.7.1-1.1.8-.9,1.5s.8,1.1,1.4,1h0Z"/>
  <path class="st0" d="M23.9,28.1c6.8-1.4,10.9.1,11,.1h0c.6.2,1.4,0,1.6-.7.1-.3.1-.6,0-.9s-.4-.5-.7-.7c-.2,0-4.8-1.8-12.4-.3h0c-.7.1-1.1.8-.9,1.5s.8,1.1,1.4,1h0Z"/>
  <path class="st0" d="M35.8,30.3c-.2,0-4.7-1.8-12.3-.2-.7.1-1.1.8-.9,1.5.1.7.8,1.1,1.4,1,6.8-1.4,10.8,0,10.9,0,.6.2,1.4,0,1.6-.7.2-.6,0-1.4-.7-1.6h0Z"/>
  <path class="st0" d="M35.7,34.3c-.2,0-4.9-1.3-12.3,0-.6.1-1.1.7-1,1.3,0,.6.6,1.1,1.2,1.1,0,0,.1,0,.2,0,3.7-.8,7.5-.8,11.2,0,.7.2,1.3-.2,1.5-.9s-.2-1.3-.9-1.5h0Z"/>
  <path class="st0" d="M35.7,38.9c-.2,0-5-1.4-12.2,0h0c-.7.1-1.1.8-1,1.4.1.7.8,1.1,1.4,1,3.6-.8,7.4-.8,11,0,.7.2,1.3-.2,1.5-.8.2-.7-.2-1.3-.8-1.5h0Z"/>
  <path class="st0" d="M42.2,21.4c-.7.1-1.1.8-.9,1.5.1.7.8,1.1,1.4,1,6.8-1.4,10.9.1,11,.1.1,0,.3,0,.4,0,.6,0,1.1-.4,1.2-1,.1-.6-.2-1.2-.8-1.4-.2,0-4.8-1.8-12.4-.3h0Z"/>
  <path class="st0" d="M54.6,26c-.2,0-4.8-1.8-12.4-.3-.7.1-1.1.8-.9,1.5.1.7.8,1.1,1.4,1,6.8-1.4,11,.1,11,.1h0c.6.2,1.4,0,1.6-.7.2-.6,0-1.4-.7-1.6h0Z"/>
  <path class="st0" d="M54.6,30.3c-.2,0-4.7-1.8-12.3-.2h0c-.7.1-1.1.8-.9,1.5.1.7.8,1.1,1.4,1,6.8-1.4,10.8,0,10.9,0,.6.2,1.4,0,1.6-.7.2-.6,0-1.4-.7-1.6h0Z"/>
  <path class="st0" d="M54.5,34.3c-.2,0-4.9-1.3-12.3,0h0c-.6.1-1.1.7-1,1.3,0,.6.6,1.1,1.2,1.1,0,0,.1,0,.2,0,3.7-.8,7.5-.8,11.2,0,.7.2,1.3-.2,1.5-.9.2-.7-.2-1.3-.9-1.5h0Z"/>
  <path class="st0" d="M54.5,38.9c-.2,0-5-1.4-12.2,0h0c-.7.1-1.1.8-1,1.4.1.7.8,1.1,1.4,1,3.6-.8,7.4-.8,11,0,.7.2,1.3-.2,1.5-.8.2-.7-.2-1.3-.8-1.5h0Z"/>
</svg>