<?xml version="1.0" encoding="UTF-8"?>
<svg id="Layer_1" xmlns="http://www.w3.org/2000/svg" version="1.1" xmlns:cc="http://creativecommons.org/ns#" xmlns:dc="http://purl.org/dc/elements/1.1/" xmlns:inkscape="http://www.inkscape.org/namespaces/inkscape" xmlns:rdf="http://www.w3.org/1999/02/22-rdf-syntax-ns#" xmlns:sodipodi="http://sodipodi.sourceforge.net/DTD/sodipodi-0.dtd" xmlns:svg="http://www.w3.org/2000/svg" viewBox="0 0 88.3 88.5">
  <!-- Generator: Adobe Illustrator 29.0.0, SVG Export Plug-In . SVG Version: 2.1.0 Build 186)  -->
  <defs>
    <style>
      .st0 {
        fill-rule: evenodd;
      }
    </style>
  </defs>
  <path class="st0" d="M44.1.4C19.9.4.1,20.1.1,44.4s19.7,44,44,44,44-19.7,44-44S68.4.4,44.1.4ZM44.1,4.4c22.1,0,40,17.9,40,40s-17.9,40-40,40S4.1,66.5,4.1,44.4,22,4.4,44.1,4.4h0Z"/>
  <path class="st0" d="M29.2,26.3c-1.1,0-2,.9-2,2s.9,2,2,2c0,0,0,0,0,0h29.9c1.1,0,2-.9,2-2,0-1.1-.9-2-2-2,0,0,0,0,0,0h-29.9Z"/>
  <path class="st0" d="M24.2,42.4c-1.1,0-2,.9-2,2s.9,2,2,2c0,0,0,0,0,0h39.8c1.1,0,2-.9,2-2,0-1.1-.9-2-2-2,0,0,0,0,0,0H24.2Z"/>
  <path class="st0" d="M29.2,58.4c-1.1,0-2,.9-2,2s.9,2,2,2c0,0,0,0,0,0h29.9c1.1,0,2-.9,2-2,0-1.1-.9-2-2-2,0,0,0,0,0,0h-29.9Z"/>
</svg>