<?xml version="1.0" encoding="UTF-8"?>
<svg id="Layer_1" data-name="Layer 1" xmlns="http://www.w3.org/2000/svg" viewBox="0 0 88.33 88.48">
  <defs>
    <style>
      .cls-1 {
        fill-rule: evenodd;
      }
    </style>
  </defs>
  <path class="cls-1" d="M44.14.37C19.86.37.14,20.1.14,44.37s19.72,44,43.99,44,44.01-19.72,44.01-44S68.42.37,44.14.37ZM44.14,4.37c22.12,0,40.01,17.89,40.01,40s-17.89,40-40.01,40S4.14,66.49,4.14,44.37,22.02,4.37,44.14,4.37h0Z"/>
  <path class="cls-1" d="M29.21,26.29c-1.1-.01-2.01.87-2.02,1.97s.87,2.01,1.97,2.02c.02,0,.03,0,.05,0h29.87c1.1.01,2.01-.87,2.02-1.97.01-1.1-.87-2.01-1.97-2.02-.02,0-.03,0-.05,0h-29.87Z"/>
  <path class="cls-1" d="M24.23,42.37c-1.1-.01-2.01.87-2.02,1.97s.87,2.01,1.97,2.02c.02,0,.03,0,.05,0h39.82c1.1.01,2.01-.87,2.02-1.97.01-1.1-.87-2.01-1.97-2.02-.02,0-.03,0-.05,0H24.23Z"/>
  <path class="cls-1" d="M29.21,58.45c-1.1-.01-2.01.87-2.02,1.97s.87,2.01,1.97,2.02c.02,0,.03,0,.05,0h29.87c1.1.01,2.01-.87,2.02-1.97.01-1.1-.87-2.01-1.97-2.02-.02,0-.03,0-.05,0h-29.87Z"/>
</svg>